<?xml version="1.0" encoding="UTF-8"?><svg xmlns="http://www.w3.org/2000/svg" xmlns:xlink="http://www.w3.org/1999/xlink" contentScriptType="text/ecmascript" width="810pt" zoomAndPan="magnify" contentStyleType="text/css" viewBox="0 0 810 809.999993" height="809.999993pt" preserveAspectRatio="xMidYMid meet" version="1.2"><defs><g/><clipPath xml:id="clip1" id="clip1"><path d="M 66.105469 156 L 712.425781 156 L 712.425781 674.222656 L 66.105469 674.222656 Z M 66.105469 156 "/></clipPath><clipPath xml:id="clip2" id="clip2"><path d="M 125.027344 270.699219 L 201.433594 270.699219 L 201.433594 377.199219 L 125.027344 377.199219 Z M 125.027344 270.699219 "/></clipPath></defs><g xml:id="surface1" id="surface1"><path style=" stroke:none;fill-rule:nonzero;fill:rgb(54.899597%,32.159424%,100%);fill-opacity:1;" d="M 727.742188 543.171875 C 716.65625 572.144531 675.316406 610.757812 640.894531 620.34375 C 566.855469 640.363281 298.398438 617.011719 228.703125 615.835938 C 190.902344 608.75 115.6875 588.175781 98.109375 545.261719 C 54.328125 432.8125 61.21875 352.296875 84.582031 244.140625 C 99.339844 191.289062 124.894531 164.242188 172.703125 155.21875 C 274.09375 135.738281 333.21875 160.949219 431.871094 189.445312 C 530.730469 217.335938 697.234375 259.128906 709.835938 284.316406 C 749.21875 364.613281 756.039062 466.09375 727.742188 543.171875 "/><g clip-rule="nonzero" clip-path="url(#clip1)"><path style=" stroke:none;fill-rule:nonzero;fill:rgb(0%,0%,0%);fill-opacity:1;" d="M 232.769531 621.035156 L 288.988281 662.65625 L 288.988281 611.980469 L 291.46875 611.59375 C 401.671875 594.589844 513.808594 581.296875 624.769531 572.101562 C 659.824219 568.910156 689.824219 544.101562 691.621094 516.808594 L 706.128906 286.296875 C 707 273.101562 700.824219 259.332031 688.742188 247.496094 C 676.410156 235.421875 659.53125 226.964844 641.21875 223.683594 C 475.070312 195.070312 305.292969 174.367188 136.621094 162.171875 C 134.929688 162.039062 133.246094 161.96875 131.597656 161.96875 C 115.5625 161.96875 100.777344 168.324219 89.96875 179.859375 C 77.492188 193.167969 71.359375 211.757812 72.699219 232.214844 L 94.019531 570.890625 C 96.433594 607.832031 120.183594 634.644531 150.5 634.644531 C 153.746094 634.644531 157.058594 634.328125 160.339844 633.699219 C 182.988281 629.550781 206.941406 625.355469 231.546875 621.238281 Z M 294.84375 674.265625 L 231.285156 627.210938 C 207.136719 631.261719 183.636719 635.375 161.417969 639.449219 C 157.800781 640.140625 154.117188 640.496094 150.5 640.496094 C 134.429688 640.496094 119.292969 633.542969 107.867188 620.917969 C 96.4375 608.285156 89.441406 590.648438 88.179688 571.261719 L 66.859375 232.589844 C 65.414062 210.507812 72.101562 190.363281 85.691406 175.863281 C 97.625 163.128906 113.929688 156.121094 131.597656 156.121094 C 133.402344 156.121094 135.238281 156.195312 137.0625 156.339844 C 305.90625 168.546875 475.878906 189.269531 642.230469 217.929688 C 682.714844 225.175781 713.996094 256.011719 711.972656 286.675781 L 697.460938 517.1875 C 696.484375 531.988281 688.367188 546.433594 674.601562 557.882812 C 661.050781 569.144531 643.535156 576.269531 625.28125 577.925781 C 515.261719 587.050781 404.109375 600.191406 294.84375 616.996094 L 294.84375 674.265625 "/></g><path style=" stroke:none;fill-rule:nonzero;fill:rgb(54.899597%,32.159424%,100%);fill-opacity:1;" d="M 655.839844 305.3125 C 663.570312 292.125 676.367188 282.257812 691.125 278.203125 C 694.597656 277.242188 698.144531 276.632812 701.722656 276.335938 C 664.769531 250.949219 520.894531 214.554688 431.871094 189.445312 C 333.21875 160.949219 274.09375 135.738281 172.703125 155.21875 C 124.894531 164.242188 99.339844 191.289062 84.582031 244.140625 C 82.308594 254.671875 80.191406 264.929688 78.261719 274.988281 C 102.351562 282.4375 120.1875 305.144531 120.246094 331.40625 C 120.3125 359.734375 123.796875 387.894531 125.085938 416.171875 C 126.539062 448.015625 125.003906 481.121094 115.679688 511.785156 C 112.109375 523.515625 105.289062 533.550781 96.476562 541.003906 C 97.015625 542.417969 97.558594 543.835938 98.109375 545.261719 C 115.6875 588.175781 190.902344 608.75 228.703125 615.835938 C 232.867188 615.90625 237.742188 616.054688 243.234375 616.265625 C 243.230469 615.953125 243.214844 615.632812 243.214844 615.316406 C 243.214844 599.734375 249.484375 584.613281 260.5 573.601562 C 271.523438 562.585938 286.648438 556.320312 302.242188 556.320312 L 305.929688 556.320312 C 319.367188 556.320312 332.457031 560.984375 342.875 569.324219 C 349.722656 566.496094 357.179688 564.921875 364.957031 564.921875 C 397.023438 564.921875 429.085938 565.140625 461.148438 565.21875 C 477.417969 565.257812 493.683594 565.214844 509.941406 564.886719 C 521.832031 564.648438 533.925781 564.726562 545.84375 563.773438 C 553.332031 562.257812 560.652344 560.050781 567.8125 557.386719 C 586.90625 548.464844 604.769531 537.097656 622.308594 525.460938 C 631.566406 519.316406 640.757812 513.066406 650.101562 507.050781 C 656.265625 503.085938 662.496094 499.257812 668.507812 495.085938 C 671.765625 492.265625 674.871094 489.285156 677.789062 486.117188 C 678.386719 485.160156 678.960938 484.191406 679.519531 483.210938 C 679.609375 482.890625 679.703125 482.574219 679.789062 482.25 C 679.792969 481.359375 679.792969 480.476562 679.769531 479.585938 C 677.984375 471.710938 675.457031 463.972656 673.402344 456.195312 C 670.375 444.765625 667.488281 433.292969 664.773438 421.785156 C 659.214844 398.242188 654.234375 374.566406 649.890625 350.777344 C 647.078125 340.320312 647.078125 329.863281 649.890625 319.410156 C 651.875 314.710938 653.859375 310.015625 655.839844 305.3125 "/><g style="fill:rgb(0%,0%,0%);fill-opacity:1;"><g transform="translate(225.567854, 344.362357)"><path style="stroke:none;" d="M 33.03125 -56.890625 L 55.984375 0 L 42.0625 0 L 37.859375 -11.375 L 16.203125 -11.375 L 12 0 L -1.9375 0 L 21.03125 -56.890625 Z M 33.4375 -22.75 L 27.09375 -39.296875 L 26.953125 -39.296875 L 20.609375 -22.75 Z M 33.4375 -22.75 "/></g></g><g style="fill:rgb(0%,0%,0%);fill-opacity:1;"><g transform="translate(279.624271, 344.362357)"><path style="stroke:none;" d="M 4.140625 -56.890625 L 21.796875 -56.890625 C 27.117188 -56.890625 31.363281 -55.75 34.53125 -53.46875 C 37.707031 -51.195312 39.296875 -47.507812 39.296875 -42.40625 C 39.296875 -36.707031 36.929688 -32.640625 32.203125 -30.203125 C 40.296875 -28.773438 44.34375 -23.992188 44.34375 -15.859375 C 44.34375 -11.078125 42.6875 -7.238281 39.375 -4.34375 C 36.0625 -1.445312 31.507812 0 25.71875 0 L 4.140625 0 Z M 17.09375 -34.609375 L 18.140625 -34.609375 C 21.035156 -34.609375 23.191406 -35.113281 24.609375 -36.125 C 26.035156 -37.132812 26.75 -38.789062 26.75 -41.09375 C 26.75 -44.957031 23.878906 -46.890625 18.140625 -46.890625 L 17.09375 -46.890625 Z M 17.09375 -10 L 21.171875 -10 C 27.515625 -10 30.6875 -12.113281 30.6875 -16.34375 C 30.6875 -18.875 29.890625 -20.6875 28.296875 -21.78125 C 26.710938 -22.882812 24.335938 -23.4375 21.171875 -23.4375 L 17.09375 -23.4375 Z M 17.09375 -10 "/></g></g><g style="fill:rgb(0%,0%,0%);fill-opacity:1;"><g transform="translate(325.544648, 344.362357)"><path style="stroke:none;" d="M 1.578125 -28.484375 C 1.578125 -36.703125 4.378906 -43.660156 9.984375 -49.359375 C 15.597656 -55.066406 22.359375 -57.921875 30.265625 -57.921875 C 38.222656 -57.921875 44.984375 -55.082031 50.546875 -49.40625 C 56.109375 -43.726562 58.890625 -36.753906 58.890625 -28.484375 C 58.890625 -20.160156 56.148438 -13.160156 50.671875 -7.484375 C 45.203125 -1.804688 38.398438 1.03125 30.265625 1.03125 C 21.953125 1.03125 15.09375 -1.78125 9.6875 -7.40625 C 4.28125 -13.039062 1.578125 -20.066406 1.578125 -28.484375 Z M 15.578125 -28.484375 C 15.578125 -25.492188 16.035156 -22.769531 16.953125 -20.3125 C 17.878906 -17.851562 19.488281 -15.769531 21.78125 -14.0625 C 24.082031 -12.363281 26.910156 -11.515625 30.265625 -11.515625 C 35.097656 -11.515625 38.742188 -13.164062 41.203125 -16.46875 C 43.660156 -19.78125 44.890625 -23.785156 44.890625 -28.484375 C 44.890625 -33.117188 43.632812 -37.101562 41.125 -40.4375 C 38.625 -43.769531 35.003906 -45.4375 30.265625 -45.4375 C 25.578125 -45.4375 21.957031 -43.769531 19.40625 -40.4375 C 16.851562 -37.101562 15.578125 -33.117188 15.578125 -28.484375 Z M 15.578125 -28.484375 "/></g></g><g style="fill:rgb(0%,0%,0%);fill-opacity:1;"><g transform="translate(386.01337, 344.362357)"><path style="stroke:none;" d="M 47.859375 -56.890625 L 47.859375 -20.203125 C 47.859375 -13.210938 45.972656 -7.925781 42.203125 -4.34375 C 38.429688 -0.757812 32.910156 1.03125 25.640625 1.03125 C 18.378906 1.03125 12.863281 -0.757812 9.09375 -4.34375 C 5.332031 -7.925781 3.453125 -13.210938 3.453125 -20.203125 L 3.453125 -56.890625 L 16.40625 -56.890625 L 16.40625 -24 C 16.40625 -19.394531 17.128906 -16.195312 18.578125 -14.40625 C 20.023438 -12.613281 22.378906 -11.71875 25.640625 -11.71875 C 28.910156 -11.71875 31.269531 -12.613281 32.71875 -14.40625 C 34.164062 -16.195312 34.890625 -19.394531 34.890625 -24 L 34.890625 -56.890625 Z M 47.859375 -56.890625 "/></g></g><g style="fill:rgb(0%,0%,0%);fill-opacity:1;"><g transform="translate(437.311789, 344.362357)"><path style="stroke:none;" d="M 0.546875 -45.515625 L 0.546875 -56.890625 L 40.546875 -56.890625 L 40.546875 -45.515625 L 27.03125 -45.515625 L 27.03125 0 L 14.0625 0 L 14.0625 -45.515625 Z M 0.546875 -45.515625 "/></g></g><g style="fill:rgb(0%,0%,0%);fill-opacity:1;"><g transform="translate(478.405689, 344.362357)"><path style="stroke:none;" d=""/></g></g><g style="fill:rgb(0%,0%,0%);fill-opacity:1;"><g transform="translate(497.228913, 344.362357)"><path style="stroke:none;" d="M 47.859375 -56.890625 L 47.859375 -20.203125 C 47.859375 -13.210938 45.972656 -7.925781 42.203125 -4.34375 C 38.429688 -0.757812 32.910156 1.03125 25.640625 1.03125 C 18.378906 1.03125 12.863281 -0.757812 9.09375 -4.34375 C 5.332031 -7.925781 3.453125 -13.210938 3.453125 -20.203125 L 3.453125 -56.890625 L 16.40625 -56.890625 L 16.40625 -24 C 16.40625 -19.394531 17.128906 -16.195312 18.578125 -14.40625 C 20.023438 -12.613281 22.378906 -11.71875 25.640625 -11.71875 C 28.910156 -11.71875 31.269531 -12.613281 32.71875 -14.40625 C 34.164062 -16.195312 34.890625 -19.394531 34.890625 -24 L 34.890625 -56.890625 Z M 47.859375 -56.890625 "/></g></g><g style="fill:rgb(0%,0%,0%);fill-opacity:1;"><g transform="translate(548.527343, 344.362357)"><path style="stroke:none;" d="M 25.09375 -57.921875 C 28.175781 -57.921875 31.1875 -57.472656 34.125 -56.578125 C 37.070312 -55.679688 39.257812 -54.796875 40.6875 -53.921875 L 42.75 -52.546875 L 37.515625 -42.203125 C 37.097656 -42.472656 36.519531 -42.828125 35.78125 -43.265625 C 35.050781 -43.703125 33.671875 -44.285156 31.640625 -45.015625 C 29.617188 -45.753906 27.738281 -46.125 26 -46.125 C 23.832031 -46.125 22.160156 -45.664062 20.984375 -44.75 C 19.816406 -43.832031 19.234375 -42.59375 19.234375 -41.03125 C 19.234375 -40.25 19.507812 -39.523438 20.0625 -38.859375 C 20.613281 -38.191406 21.554688 -37.476562 22.890625 -36.71875 C 24.222656 -35.957031 25.394531 -35.347656 26.40625 -34.890625 C 27.414062 -34.429688 28.976562 -33.742188 31.09375 -32.828125 C 34.769531 -31.265625 37.90625 -29.132812 40.5 -26.4375 C 43.101562 -23.75 44.40625 -20.707031 44.40625 -17.3125 C 44.40625 -14.039062 43.816406 -11.1875 42.640625 -8.75 C 41.472656 -6.320312 39.863281 -4.414062 37.8125 -3.03125 C 35.769531 -1.65625 33.507812 -0.632812 31.03125 0.03125 C 28.550781 0.695312 25.863281 1.03125 22.96875 1.03125 C 20.476562 1.03125 18.035156 0.773438 15.640625 0.265625 C 13.253906 -0.234375 11.253906 -0.863281 9.640625 -1.625 C 8.035156 -2.382812 6.585938 -3.128906 5.296875 -3.859375 C 4.015625 -4.597656 3.078125 -5.21875 2.484375 -5.71875 L 1.578125 -6.484375 L 8.0625 -17.375 C 8.613281 -16.914062 9.375 -16.328125 10.34375 -15.609375 C 11.3125 -14.898438 13.023438 -13.945312 15.484375 -12.75 C 17.941406 -11.5625 20.113281 -10.96875 22 -10.96875 C 27.46875 -10.96875 30.203125 -12.828125 30.203125 -16.546875 C 30.203125 -17.328125 30.003906 -18.050781 29.609375 -18.71875 C 29.222656 -19.382812 28.535156 -20.050781 27.546875 -20.71875 C 26.554688 -21.382812 25.679688 -21.910156 24.921875 -22.296875 C 24.160156 -22.691406 22.921875 -23.289062 21.203125 -24.09375 C 19.484375 -24.90625 18.207031 -25.515625 17.375 -25.921875 C 13.925781 -27.628906 11.257812 -29.753906 9.375 -32.296875 C 7.488281 -34.847656 6.546875 -37.597656 6.546875 -40.546875 C 6.546875 -45.648438 8.429688 -49.820312 12.203125 -53.0625 C 15.972656 -56.300781 20.269531 -57.921875 25.09375 -57.921875 Z M 25.09375 -57.921875 "/></g></g><path style=" stroke:none;fill-rule:nonzero;fill:rgb(96.859741%,91.369629%,41.178894%);fill-opacity:1;" d="M 200.066406 309.136719 C 200.066406 288.703125 183.574219 272.136719 163.230469 272.136719 C 142.886719 272.136719 126.394531 288.703125 126.394531 309.136719 C 126.394531 323.003906 133.996094 335.089844 145.242188 341.425781 L 145.238281 341.425781 C 147.132812 342.601562 148.386719 344.027344 149.273438 345.59375 C 151.933594 350.289062 151.3125 356.21875 154.957031 360.34375 L 171.535156 360.34375 C 176.390625 354.847656 173.667969 346.132812 181.25 341.425781 L 181.222656 341.425781 C 192.464844 335.089844 200.066406 323.003906 200.066406 309.136719 "/><path style=" stroke:none;fill-rule:nonzero;fill:rgb(70.199585%,70.199585%,70.199585%);fill-opacity:1;" d="M 164.636719 344.597656 L 161.824219 344.597656 C 158.945312 344.597656 156.613281 346.9375 156.613281 349.828125 L 156.613281 360.34375 L 157.296875 369.65625 L 159.007812 374.578125 C 159.285156 375.382812 159.757812 375.863281 160.261719 375.863281 L 166.199219 375.863281 C 166.703125 375.863281 167.175781 375.382812 167.453125 374.578125 L 169.164062 369.65625 L 169.847656 360.34375 L 169.847656 349.828125 C 169.847656 346.9375 167.515625 344.597656 164.636719 344.597656 "/><g clip-rule="nonzero" clip-path="url(#clip2)"><path style=" stroke:none;fill-rule:nonzero;fill:rgb(0%,0%,0%);fill-opacity:1;" d="M 180.554688 340.226562 C 180.472656 340.273438 180.398438 340.324219 180.328125 340.382812 C 175.667969 343.386719 174.605469 347.859375 173.664062 351.8125 C 173.085938 354.253906 172.523438 356.578125 171.214844 358.503906 L 171.214844 349.828125 C 171.214844 347.585938 170.09375 345.605469 168.390625 344.410156 L 168.390625 326.71875 L 172.074219 326.71875 C 175.617188 326.71875 178.496094 323.824219 178.496094 320.269531 C 178.496094 316.710938 175.617188 313.820312 172.074219 313.820312 C 171.574219 313.820312 171.082031 313.878906 170.609375 313.988281 C 167.691406 314.671875 165.652344 317.253906 165.652344 320.269531 L 165.652344 323.96875 L 160.808594 323.96875 L 160.808594 320.269531 C 160.808594 317.253906 158.769531 314.671875 155.859375 313.992188 C 155.382812 313.878906 154.886719 313.820312 154.386719 313.820312 C 150.847656 313.820312 147.964844 316.710938 147.964844 320.269531 C 147.964844 323.824219 150.847656 326.71875 154.386719 326.71875 L 158.074219 326.71875 L 158.074219 344.410156 C 156.367188 345.605469 155.246094 347.585938 155.246094 349.828125 L 155.246094 358.460938 C 153.957031 356.542969 153.398438 354.238281 152.824219 351.8125 C 152.273438 349.5 151.707031 347.113281 150.460938 344.914062 C 149.363281 342.980469 147.890625 341.457031 145.910156 340.226562 C 134.714844 333.921875 127.765625 322.007812 127.765625 309.136719 C 127.765625 289.492188 143.675781 273.511719 163.230469 273.511719 C 182.789062 273.511719 198.699219 289.492188 198.699219 309.136719 C 198.699219 322.007812 191.746094 333.921875 180.554688 340.226562 Z M 158.226562 363.640625 L 158.085938 361.714844 L 168.375 361.714844 L 168.234375 363.640625 Z M 167.894531 368.285156 L 158.566406 368.285156 L 158.429688 366.386719 L 168.03125 366.386719 Z M 165.988281 374.492188 L 160.472656 374.492188 C 160.425781 374.421875 159.222656 371.03125 159.222656 371.03125 L 167.238281 371.03125 C 167.238281 371.03125 166.035156 374.421875 165.988281 374.492188 Z M 161.824219 345.96875 L 164.636719 345.96875 C 166.757812 345.96875 168.480469 347.703125 168.480469 349.828125 L 168.480469 358.96875 L 157.980469 358.96875 L 157.980469 349.828125 C 157.980469 347.703125 159.707031 345.96875 161.824219 345.96875 Z M 169.847656 323.96875 L 168.390625 323.96875 L 168.390625 320.269531 C 168.390625 318.539062 169.558594 317.058594 171.234375 316.664062 C 171.507812 316.597656 171.789062 316.566406 172.074219 316.566406 C 174.105469 316.566406 175.761719 318.226562 175.761719 320.269531 C 175.761719 322.308594 174.105469 323.96875 172.074219 323.96875 Z M 160.808594 326.71875 L 165.652344 326.71875 L 165.652344 343.308594 C 165.320312 343.257812 164.984375 343.222656 164.636719 343.222656 L 161.824219 343.222656 C 161.476562 343.222656 161.140625 343.257812 160.808594 343.308594 Z M 154.386719 323.96875 C 152.355469 323.96875 150.699219 322.308594 150.699219 320.269531 C 150.699219 318.226562 152.355469 316.566406 154.386719 316.566406 C 154.675781 316.566406 154.957031 316.597656 155.230469 316.664062 C 156.90625 317.058594 158.074219 318.539062 158.074219 320.269531 L 158.074219 323.96875 Z M 163.230469 270.765625 C 142.167969 270.765625 125.027344 287.976562 125.027344 309.136719 C 125.027344 323 132.515625 335.832031 144.519531 342.59375 C 146.054688 343.546875 147.222656 344.75 148.085938 346.273438 C 149.136719 348.132812 149.636719 350.226562 150.164062 352.449219 C 150.886719 355.5 151.636719 358.65625 153.933594 361.253906 C 154.195312 361.546875 154.566406 361.714844 154.957031 361.714844 L 155.34375 361.714844 L 155.484375 363.640625 L 155.1875 363.640625 C 154.433594 363.640625 153.820312 364.257812 153.820312 365.015625 C 153.820312 365.773438 154.433594 366.386719 155.1875 366.386719 L 155.6875 366.386719 L 155.828125 368.285156 L 155.707031 368.285156 C 154.949219 368.285156 154.339844 368.898438 154.339844 369.65625 C 154.339844 370.417969 154.949219 371.03125 155.707031 371.03125 L 156.328125 371.03125 L 157.714844 375.027344 C 158.195312 376.414062 159.148438 377.238281 160.261719 377.238281 L 166.199219 377.238281 C 167.3125 377.238281 168.265625 376.414062 168.746094 375.027344 L 170.132812 371.03125 L 170.757812 371.03125 C 171.511719 371.03125 172.125 370.417969 172.125 369.65625 C 172.125 368.898438 171.511719 368.285156 170.757812 368.285156 L 170.632812 368.285156 L 170.773438 366.386719 L 171.273438 366.386719 C 172.027344 366.386719 172.640625 365.773438 172.640625 365.015625 C 172.640625 364.257812 172.027344 363.640625 171.273438 363.640625 L 170.976562 363.640625 L 171.117188 361.714844 L 171.535156 361.714844 C 171.925781 361.714844 172.296875 361.546875 172.554688 361.253906 C 174.851562 358.65625 175.601562 355.5 176.324219 352.449219 C 177.234375 348.617188 178.09375 344.996094 181.96875 342.59375 C 182.007812 342.566406 182.046875 342.539062 182.085938 342.511719 C 194.023438 335.691406 201.433594 322.925781 201.433594 309.136719 C 201.433594 287.976562 184.296875 270.765625 163.230469 270.765625 "/></g><g style="fill:rgb(0%,0%,0%);fill-opacity:1;"><g transform="translate(201.633509, 430.752752)"><path style="stroke:none;" d="M 15.765625 -9.453125 L 18.328125 -9.453125 L 18.328125 -2.171875 C 17.398438 -1.398438 16.320312 -0.804688 15.09375 -0.390625 C 13.863281 0.015625 12.582031 0.21875 11.25 0.21875 C 9.363281 0.21875 7.660156 -0.191406 6.140625 -1.015625 C 4.628906 -1.847656 3.441406 -2.988281 2.578125 -4.4375 C 1.710938 -5.894531 1.28125 -7.535156 1.28125 -9.359375 C 1.28125 -11.171875 1.710938 -12.804688 2.578125 -14.265625 C 3.441406 -15.722656 4.632812 -16.863281 6.15625 -17.6875 C 7.675781 -18.507812 9.390625 -18.921875 11.296875 -18.921875 C 12.796875 -18.921875 14.15625 -18.675781 15.375 -18.1875 C 16.59375 -17.695312 17.628906 -16.976562 18.484375 -16.03125 L 16.828125 -14.375 C 15.335938 -15.8125 13.53125 -16.53125 11.40625 -16.53125 C 9.976562 -16.53125 8.695312 -16.222656 7.5625 -15.609375 C 6.4375 -15.003906 5.550781 -14.148438 4.90625 -13.046875 C 4.269531 -11.953125 3.953125 -10.722656 3.953125 -9.359375 C 3.953125 -8.003906 4.269531 -6.773438 4.90625 -5.671875 C 5.550781 -4.578125 6.4375 -3.71875 7.5625 -3.09375 C 8.695312 -2.476562 9.96875 -2.171875 11.375 -2.171875 C 13.050781 -2.171875 14.515625 -2.566406 15.765625 -3.359375 Z M 15.765625 -9.453125 "/></g></g><g style="fill:rgb(0%,0%,0%);fill-opacity:1;"><g transform="translate(227.092516, 430.752752)"><path style="stroke:none;" d="M 15.234375 -7 C 15.234375 -6.800781 15.210938 -6.539062 15.171875 -6.21875 L 3.6875 -6.21875 C 3.84375 -4.976562 4.390625 -3.976562 5.328125 -3.21875 C 6.265625 -2.457031 7.425781 -2.078125 8.8125 -2.078125 C 10.507812 -2.078125 11.875 -2.648438 12.90625 -3.796875 L 14.328125 -2.140625 C 13.679688 -1.390625 12.878906 -0.816406 11.921875 -0.421875 C 10.972656 -0.0351562 9.910156 0.15625 8.734375 0.15625 C 7.242188 0.15625 5.914062 -0.148438 4.75 -0.765625 C 3.59375 -1.378906 2.695312 -2.238281 2.0625 -3.34375 C 1.4375 -4.445312 1.125 -5.691406 1.125 -7.078125 C 1.125 -8.453125 1.429688 -9.691406 2.046875 -10.796875 C 2.660156 -11.898438 3.503906 -12.757812 4.578125 -13.375 C 5.660156 -13.988281 6.878906 -14.296875 8.234375 -14.296875 C 9.585938 -14.296875 10.789062 -13.988281 11.84375 -13.375 C 12.90625 -12.757812 13.734375 -11.898438 14.328125 -10.796875 C 14.929688 -9.691406 15.234375 -8.425781 15.234375 -7 Z M 8.234375 -12.125 C 7.003906 -12.125 5.972656 -11.75 5.140625 -11 C 4.316406 -10.257812 3.832031 -9.28125 3.6875 -8.0625 L 12.765625 -8.0625 C 12.628906 -9.257812 12.144531 -10.234375 11.3125 -10.984375 C 10.488281 -11.742188 9.460938 -12.125 8.234375 -12.125 Z M 8.234375 -12.125 "/></g></g><g style="fill:rgb(0%,0%,0%);fill-opacity:1;"><g transform="translate(248.277595, 430.752752)"><path style="stroke:none;" d="M 10.390625 -0.828125 C 10.015625 -0.503906 9.550781 -0.257812 9 -0.09375 C 8.445312 0.0703125 7.878906 0.15625 7.296875 0.15625 C 5.867188 0.15625 4.765625 -0.222656 3.984375 -0.984375 C 3.203125 -1.753906 2.8125 -2.851562 2.8125 -4.28125 L 2.8125 -12.046875 L 0.40625 -12.046875 L 0.40625 -14.15625 L 2.8125 -14.15625 L 2.8125 -17.265625 L 5.375 -17.265625 L 5.375 -14.15625 L 9.4375 -14.15625 L 9.4375 -12.046875 L 5.375 -12.046875 L 5.375 -4.375 C 5.375 -3.613281 5.5625 -3.023438 5.9375 -2.609375 C 6.320312 -2.203125 6.875 -2 7.59375 -2 C 8.375 -2 9.039062 -2.222656 9.59375 -2.671875 Z M 10.390625 -0.828125 "/></g></g><g style="fill:rgb(0%,0%,0%);fill-opacity:1;"><g transform="translate(264.173669, 430.752752)"><path style="stroke:none;" d=""/></g></g><g style="fill:rgb(0%,0%,0%);fill-opacity:1;"><g transform="translate(276.1965, 430.752752)"><path style="stroke:none;" d="M 10.390625 -0.828125 C 10.015625 -0.503906 9.550781 -0.257812 9 -0.09375 C 8.445312 0.0703125 7.878906 0.15625 7.296875 0.15625 C 5.867188 0.15625 4.765625 -0.222656 3.984375 -0.984375 C 3.203125 -1.753906 2.8125 -2.851562 2.8125 -4.28125 L 2.8125 -12.046875 L 0.40625 -12.046875 L 0.40625 -14.15625 L 2.8125 -14.15625 L 2.8125 -17.265625 L 5.375 -17.265625 L 5.375 -14.15625 L 9.4375 -14.15625 L 9.4375 -12.046875 L 5.375 -12.046875 L 5.375 -4.375 C 5.375 -3.613281 5.5625 -3.023438 5.9375 -2.609375 C 6.320312 -2.203125 6.875 -2 7.59375 -2 C 8.375 -2 9.039062 -2.222656 9.59375 -2.671875 Z M 10.390625 -0.828125 "/></g></g><g style="fill:rgb(0%,0%,0%);fill-opacity:1;"><g transform="translate(292.092575, 430.752752)"><path style="stroke:none;" d="M 8.5 0.15625 C 7.09375 0.15625 5.828125 -0.148438 4.703125 -0.765625 C 3.578125 -1.390625 2.695312 -2.25 2.0625 -3.34375 C 1.4375 -4.445312 1.125 -5.691406 1.125 -7.078125 C 1.125 -8.472656 1.4375 -9.71875 2.0625 -10.8125 C 2.695312 -11.90625 3.578125 -12.757812 4.703125 -13.375 C 5.828125 -13.988281 7.09375 -14.296875 8.5 -14.296875 C 9.90625 -14.296875 11.164062 -13.988281 12.28125 -13.375 C 13.394531 -12.757812 14.265625 -11.90625 14.890625 -10.8125 C 15.523438 -9.71875 15.84375 -8.472656 15.84375 -7.078125 C 15.84375 -5.691406 15.523438 -4.445312 14.890625 -3.34375 C 14.265625 -2.25 13.394531 -1.390625 12.28125 -0.765625 C 11.164062 -0.148438 9.90625 0.15625 8.5 0.15625 Z M 8.5 -2.078125 C 9.40625 -2.078125 10.21875 -2.285156 10.9375 -2.703125 C 11.664062 -3.128906 12.234375 -3.71875 12.640625 -4.46875 C 13.046875 -5.226562 13.25 -6.097656 13.25 -7.078125 C 13.25 -8.054688 13.046875 -8.925781 12.640625 -9.6875 C 12.234375 -10.445312 11.664062 -11.03125 10.9375 -11.4375 C 10.21875 -11.84375 9.40625 -12.046875 8.5 -12.046875 C 7.59375 -12.046875 6.773438 -11.84375 6.046875 -11.4375 C 5.328125 -11.03125 4.757812 -10.445312 4.34375 -9.6875 C 3.925781 -8.925781 3.71875 -8.054688 3.71875 -7.078125 C 3.71875 -6.097656 3.925781 -5.226562 4.34375 -4.46875 C 4.757812 -3.71875 5.328125 -3.128906 6.046875 -2.703125 C 6.773438 -2.285156 7.59375 -2.078125 8.5 -2.078125 Z M 8.5 -2.078125 "/></g></g><g style="fill:rgb(0%,0%,0%);fill-opacity:1;"><g transform="translate(313.892021, 430.752752)"><path style="stroke:none;" d=""/></g></g><g style="fill:rgb(0%,0%,0%);fill-opacity:1;"><g transform="translate(325.914852, 430.752752)"><path style="stroke:none;" d="M 7.9375 -6.59375 L 5 -3.875 L 5 0 L 2.4375 0 L 2.4375 -19.828125 L 5 -19.828125 L 5 -7.109375 L 12.71875 -14.15625 L 15.8125 -14.15625 L 9.859375 -8.3125 L 16.40625 0 L 13.25 0 Z M 7.9375 -6.59375 "/></g></g><g style="fill:rgb(0%,0%,0%);fill-opacity:1;"><g transform="translate(347.206779, 430.752752)"><path style="stroke:none;" d="M 10 -14.296875 C 11.789062 -14.296875 13.21875 -13.773438 14.28125 -12.734375 C 15.34375 -11.691406 15.875 -10.164062 15.875 -8.15625 L 15.875 0 L 13.3125 0 L 13.3125 -7.859375 C 13.3125 -9.222656 12.976562 -10.253906 12.3125 -10.953125 C 11.65625 -11.648438 10.710938 -12 9.484375 -12 C 8.097656 -12 7.003906 -11.59375 6.203125 -10.78125 C 5.398438 -9.96875 5 -8.804688 5 -7.296875 L 5 0 L 2.4375 0 L 2.4375 -14.15625 L 4.890625 -14.15625 L 4.890625 -12.03125 C 5.410156 -12.757812 6.109375 -13.316406 6.984375 -13.703125 C 7.867188 -14.097656 8.875 -14.296875 10 -14.296875 Z M 10 -14.296875 "/></g></g><g style="fill:rgb(0%,0%,0%);fill-opacity:1;"><g transform="translate(370.234985, 430.752752)"><path style="stroke:none;" d="M 8.5 0.15625 C 7.09375 0.15625 5.828125 -0.148438 4.703125 -0.765625 C 3.578125 -1.390625 2.695312 -2.25 2.0625 -3.34375 C 1.4375 -4.445312 1.125 -5.691406 1.125 -7.078125 C 1.125 -8.472656 1.4375 -9.71875 2.0625 -10.8125 C 2.695312 -11.90625 3.578125 -12.757812 4.703125 -13.375 C 5.828125 -13.988281 7.09375 -14.296875 8.5 -14.296875 C 9.90625 -14.296875 11.164062 -13.988281 12.28125 -13.375 C 13.394531 -12.757812 14.265625 -11.90625 14.890625 -10.8125 C 15.523438 -9.71875 15.84375 -8.472656 15.84375 -7.078125 C 15.84375 -5.691406 15.523438 -4.445312 14.890625 -3.34375 C 14.265625 -2.25 13.394531 -1.390625 12.28125 -0.765625 C 11.164062 -0.148438 9.90625 0.15625 8.5 0.15625 Z M 8.5 -2.078125 C 9.40625 -2.078125 10.21875 -2.285156 10.9375 -2.703125 C 11.664062 -3.128906 12.234375 -3.71875 12.640625 -4.46875 C 13.046875 -5.226562 13.25 -6.097656 13.25 -7.078125 C 13.25 -8.054688 13.046875 -8.925781 12.640625 -9.6875 C 12.234375 -10.445312 11.664062 -11.03125 10.9375 -11.4375 C 10.21875 -11.84375 9.40625 -12.046875 8.5 -12.046875 C 7.59375 -12.046875 6.773438 -11.84375 6.046875 -11.4375 C 5.328125 -11.03125 4.757812 -10.445312 4.34375 -9.6875 C 3.925781 -8.925781 3.71875 -8.054688 3.71875 -7.078125 C 3.71875 -6.097656 3.925781 -5.226562 4.34375 -4.46875 C 4.757812 -3.71875 5.328125 -3.128906 6.046875 -2.703125 C 6.773438 -2.285156 7.59375 -2.078125 8.5 -2.078125 Z M 8.5 -2.078125 "/></g></g><g style="fill:rgb(0%,0%,0%);fill-opacity:1;"><g transform="translate(392.034431, 430.752752)"><path style="stroke:none;" d="M 23.859375 -14.15625 L 18.5625 0 L 16.109375 0 L 12.03125 -10.734375 L 7.875 0 L 5.421875 0 L 0.15625 -14.15625 L 2.59375 -14.15625 L 6.703125 -2.890625 L 10.984375 -14.15625 L 13.140625 -14.15625 L 17.34375 -2.828125 L 21.5625 -14.15625 Z M 23.859375 -14.15625 "/></g></g><g style="fill:rgb(0%,0%,0%);fill-opacity:1;"><g transform="translate(420.88588, 430.752752)"><path style="stroke:none;" d=""/></g></g><g style="fill:rgb(0%,0%,0%);fill-opacity:1;"><g transform="translate(432.908724, 430.752752)"><path style="stroke:none;" d="M 20.140625 -14.296875 C 21.921875 -14.296875 23.332031 -13.773438 24.375 -12.734375 C 25.414062 -11.703125 25.9375 -10.175781 25.9375 -8.15625 L 25.9375 0 L 23.375 0 L 23.375 -7.859375 C 23.375 -9.222656 23.054688 -10.253906 22.421875 -10.953125 C 21.796875 -11.648438 20.894531 -12 19.71875 -12 C 18.414062 -12 17.378906 -11.59375 16.609375 -10.78125 C 15.847656 -9.96875 15.46875 -8.804688 15.46875 -7.296875 L 15.46875 0 L 12.90625 0 L 12.90625 -7.859375 C 12.90625 -9.222656 12.585938 -10.253906 11.953125 -10.953125 C 11.328125 -11.648438 10.425781 -12 9.25 -12 C 7.945312 -12 6.910156 -11.59375 6.140625 -10.78125 C 5.378906 -9.96875 5 -8.804688 5 -7.296875 L 5 0 L 2.4375 0 L 2.4375 -14.15625 L 4.890625 -14.15625 L 4.890625 -12.046875 C 5.410156 -12.773438 6.085938 -13.332031 6.921875 -13.71875 C 7.753906 -14.101562 8.707031 -14.296875 9.78125 -14.296875 C 10.882812 -14.296875 11.863281 -14.070312 12.71875 -13.625 C 13.570312 -13.175781 14.234375 -12.523438 14.703125 -11.671875 C 15.234375 -12.492188 15.972656 -13.132812 16.921875 -13.59375 C 17.878906 -14.0625 18.953125 -14.296875 20.140625 -14.296875 Z M 20.140625 -14.296875 "/></g></g><g style="fill:rgb(0%,0%,0%);fill-opacity:1;"><g transform="translate(465.980664, 430.752752)"><path style="stroke:none;" d="M 8.5 0.15625 C 7.09375 0.15625 5.828125 -0.148438 4.703125 -0.765625 C 3.578125 -1.390625 2.695312 -2.25 2.0625 -3.34375 C 1.4375 -4.445312 1.125 -5.691406 1.125 -7.078125 C 1.125 -8.472656 1.4375 -9.71875 2.0625 -10.8125 C 2.695312 -11.90625 3.578125 -12.757812 4.703125 -13.375 C 5.828125 -13.988281 7.09375 -14.296875 8.5 -14.296875 C 9.90625 -14.296875 11.164062 -13.988281 12.28125 -13.375 C 13.394531 -12.757812 14.265625 -11.90625 14.890625 -10.8125 C 15.523438 -9.71875 15.84375 -8.472656 15.84375 -7.078125 C 15.84375 -5.691406 15.523438 -4.445312 14.890625 -3.34375 C 14.265625 -2.25 13.394531 -1.390625 12.28125 -0.765625 C 11.164062 -0.148438 9.90625 0.15625 8.5 0.15625 Z M 8.5 -2.078125 C 9.40625 -2.078125 10.21875 -2.285156 10.9375 -2.703125 C 11.664062 -3.128906 12.234375 -3.71875 12.640625 -4.46875 C 13.046875 -5.226562 13.25 -6.097656 13.25 -7.078125 C 13.25 -8.054688 13.046875 -8.925781 12.640625 -9.6875 C 12.234375 -10.445312 11.664062 -11.03125 10.9375 -11.4375 C 10.21875 -11.84375 9.40625 -12.046875 8.5 -12.046875 C 7.59375 -12.046875 6.773438 -11.84375 6.046875 -11.4375 C 5.328125 -11.03125 4.757812 -10.445312 4.34375 -9.6875 C 3.925781 -8.925781 3.71875 -8.054688 3.71875 -7.078125 C 3.71875 -6.097656 3.925781 -5.226562 4.34375 -4.46875 C 4.757812 -3.71875 5.328125 -3.128906 6.046875 -2.703125 C 6.773438 -2.285156 7.59375 -2.078125 8.5 -2.078125 Z M 8.5 -2.078125 "/></g></g><g style="fill:rgb(0%,0%,0%);fill-opacity:1;"><g transform="translate(487.780098, 430.752752)"><path style="stroke:none;" d="M 4.890625 -11.78125 C 5.335938 -12.601562 5.992188 -13.226562 6.859375 -13.65625 C 7.734375 -14.082031 8.796875 -14.296875 10.046875 -14.296875 L 10.046875 -11.8125 C 9.898438 -11.832031 9.703125 -11.84375 9.453125 -11.84375 C 8.066406 -11.84375 6.976562 -11.425781 6.1875 -10.59375 C 5.394531 -9.769531 5 -8.585938 5 -7.046875 L 5 0 L 2.4375 0 L 2.4375 -14.15625 L 4.890625 -14.15625 Z M 4.890625 -11.78125 "/></g></g><g style="fill:rgb(0%,0%,0%);fill-opacity:1;"><g transform="translate(503.569325, 430.752752)"><path style="stroke:none;" d="M 15.234375 -7 C 15.234375 -6.800781 15.210938 -6.539062 15.171875 -6.21875 L 3.6875 -6.21875 C 3.84375 -4.976562 4.390625 -3.976562 5.328125 -3.21875 C 6.265625 -2.457031 7.425781 -2.078125 8.8125 -2.078125 C 10.507812 -2.078125 11.875 -2.648438 12.90625 -3.796875 L 14.328125 -2.140625 C 13.679688 -1.390625 12.878906 -0.816406 11.921875 -0.421875 C 10.972656 -0.0351562 9.910156 0.15625 8.734375 0.15625 C 7.242188 0.15625 5.914062 -0.148438 4.75 -0.765625 C 3.59375 -1.378906 2.695312 -2.238281 2.0625 -3.34375 C 1.4375 -4.445312 1.125 -5.691406 1.125 -7.078125 C 1.125 -8.453125 1.429688 -9.691406 2.046875 -10.796875 C 2.660156 -11.898438 3.503906 -12.757812 4.578125 -13.375 C 5.660156 -13.988281 6.878906 -14.296875 8.234375 -14.296875 C 9.585938 -14.296875 10.789062 -13.988281 11.84375 -13.375 C 12.90625 -12.757812 13.734375 -11.898438 14.328125 -10.796875 C 14.929688 -9.691406 15.234375 -8.425781 15.234375 -7 Z M 8.234375 -12.125 C 7.003906 -12.125 5.972656 -11.75 5.140625 -11 C 4.316406 -10.257812 3.832031 -9.28125 3.6875 -8.0625 L 12.765625 -8.0625 C 12.628906 -9.257812 12.144531 -10.234375 11.3125 -10.984375 C 10.488281 -11.742188 9.460938 -12.125 8.234375 -12.125 Z M 8.234375 -12.125 "/></g></g><g style="fill:rgb(0%,0%,0%);fill-opacity:1;"><g transform="translate(524.742568, 430.752752)"><path style="stroke:none;" d=""/></g></g><g style="fill:rgb(0%,0%,0%);fill-opacity:1;"><g transform="translate(201.633509, 468.111682)"><path style="stroke:none;" d="M 7.59375 -14.296875 C 9.550781 -14.296875 11.050781 -13.8125 12.09375 -12.84375 C 13.132812 -11.882812 13.65625 -10.453125 13.65625 -8.546875 L 13.65625 0 L 11.21875 0 L 11.21875 -1.875 C 10.789062 -1.207031 10.179688 -0.703125 9.390625 -0.359375 C 8.597656 -0.015625 7.660156 0.15625 6.578125 0.15625 C 4.984375 0.15625 3.710938 -0.222656 2.765625 -0.984375 C 1.816406 -1.753906 1.34375 -2.765625 1.34375 -4.015625 C 1.34375 -5.253906 1.796875 -6.253906 2.703125 -7.015625 C 3.609375 -7.773438 5.050781 -8.15625 7.03125 -8.15625 L 11.09375 -8.15625 L 11.09375 -8.65625 C 11.09375 -9.757812 10.769531 -10.601562 10.125 -11.1875 C 9.488281 -11.78125 8.546875 -12.078125 7.296875 -12.078125 C 6.453125 -12.078125 5.628906 -11.9375 4.828125 -11.65625 C 4.035156 -11.382812 3.363281 -11.015625 2.8125 -10.546875 L 1.734375 -12.484375 C 2.460938 -13.066406 3.332031 -13.515625 4.34375 -13.828125 C 5.363281 -14.140625 6.445312 -14.296875 7.59375 -14.296875 Z M 7 -1.8125 C 7.976562 -1.8125 8.820312 -2.03125 9.53125 -2.46875 C 10.25 -2.90625 10.769531 -3.523438 11.09375 -4.328125 L 11.09375 -6.3125 L 7.140625 -6.3125 C 4.960938 -6.3125 3.875 -5.578125 3.875 -4.109375 C 3.875 -3.398438 4.148438 -2.835938 4.703125 -2.421875 C 5.253906 -2.015625 6.019531 -1.8125 7 -1.8125 Z M 7 -1.8125 "/></g></g><g style="fill:rgb(0%,0%,0%);fill-opacity:1;"><g transform="translate(222.44461, 468.111682)"><path style="stroke:none;" d="M 9.9375 -14.296875 C 11.3125 -14.296875 12.539062 -13.992188 13.625 -13.390625 C 14.707031 -12.785156 15.554688 -11.9375 16.171875 -10.84375 C 16.785156 -9.757812 17.09375 -8.503906 17.09375 -7.078125 C 17.09375 -5.648438 16.785156 -4.390625 16.171875 -3.296875 C 15.554688 -2.203125 14.707031 -1.351562 13.625 -0.75 C 12.539062 -0.144531 11.3125 0.15625 9.9375 0.15625 C 8.882812 0.15625 7.921875 -0.046875 7.046875 -0.453125 C 6.179688 -0.859375 5.460938 -1.457031 4.890625 -2.25 L 4.890625 0 L 2.4375 0 L 2.4375 -19.828125 L 5 -19.828125 L 5 -12.03125 C 5.5625 -12.769531 6.269531 -13.332031 7.125 -13.71875 C 7.988281 -14.101562 8.925781 -14.296875 9.9375 -14.296875 Z M 9.71875 -2.078125 C 10.632812 -2.078125 11.453125 -2.285156 12.171875 -2.703125 C 12.890625 -3.128906 13.457031 -3.71875 13.875 -4.46875 C 14.300781 -5.226562 14.515625 -6.097656 14.515625 -7.078125 C 14.515625 -8.054688 14.300781 -8.925781 13.875 -9.6875 C 13.457031 -10.445312 12.890625 -11.03125 12.171875 -11.4375 C 11.453125 -11.84375 10.632812 -12.046875 9.71875 -12.046875 C 8.832031 -12.046875 8.023438 -11.84375 7.296875 -11.4375 C 6.566406 -11.03125 5.992188 -10.445312 5.578125 -9.6875 C 5.171875 -8.925781 4.96875 -8.054688 4.96875 -7.078125 C 4.96875 -6.097656 5.171875 -5.226562 5.578125 -4.46875 C 5.992188 -3.71875 6.566406 -3.128906 7.296875 -2.703125 C 8.023438 -2.285156 8.832031 -2.078125 9.71875 -2.078125 Z M 9.71875 -2.078125 "/></g></g><g style="fill:rgb(0%,0%,0%);fill-opacity:1;"><g transform="translate(245.499534, 468.111682)"><path style="stroke:none;" d="M 8.5 0.15625 C 7.09375 0.15625 5.828125 -0.148438 4.703125 -0.765625 C 3.578125 -1.390625 2.695312 -2.25 2.0625 -3.34375 C 1.4375 -4.445312 1.125 -5.691406 1.125 -7.078125 C 1.125 -8.472656 1.4375 -9.71875 2.0625 -10.8125 C 2.695312 -11.90625 3.578125 -12.757812 4.703125 -13.375 C 5.828125 -13.988281 7.09375 -14.296875 8.5 -14.296875 C 9.90625 -14.296875 11.164062 -13.988281 12.28125 -13.375 C 13.394531 -12.757812 14.265625 -11.90625 14.890625 -10.8125 C 15.523438 -9.71875 15.84375 -8.472656 15.84375 -7.078125 C 15.84375 -5.691406 15.523438 -4.445312 14.890625 -3.34375 C 14.265625 -2.25 13.394531 -1.390625 12.28125 -0.765625 C 11.164062 -0.148438 9.90625 0.15625 8.5 0.15625 Z M 8.5 -2.078125 C 9.40625 -2.078125 10.21875 -2.285156 10.9375 -2.703125 C 11.664062 -3.128906 12.234375 -3.71875 12.640625 -4.46875 C 13.046875 -5.226562 13.25 -6.097656 13.25 -7.078125 C 13.25 -8.054688 13.046875 -8.925781 12.640625 -9.6875 C 12.234375 -10.445312 11.664062 -11.03125 10.9375 -11.4375 C 10.21875 -11.84375 9.40625 -12.046875 8.5 -12.046875 C 7.59375 -12.046875 6.773438 -11.84375 6.046875 -11.4375 C 5.328125 -11.03125 4.757812 -10.445312 4.34375 -9.6875 C 3.925781 -8.925781 3.71875 -8.054688 3.71875 -7.078125 C 3.71875 -6.097656 3.925781 -5.226562 4.34375 -4.46875 C 4.757812 -3.71875 5.328125 -3.128906 6.046875 -2.703125 C 6.773438 -2.285156 7.59375 -2.078125 8.5 -2.078125 Z M 8.5 -2.078125 "/></g></g><g style="fill:rgb(0%,0%,0%);fill-opacity:1;"><g transform="translate(267.29898, 468.111682)"><path style="stroke:none;" d="M 15.625 -14.15625 L 15.625 0 L 13.203125 0 L 13.203125 -2.140625 C 12.679688 -1.410156 12 -0.84375 11.15625 -0.4375 C 10.3125 -0.0390625 9.390625 0.15625 8.390625 0.15625 C 6.503906 0.15625 5.015625 -0.363281 3.921875 -1.40625 C 2.835938 -2.445312 2.296875 -3.984375 2.296875 -6.015625 L 2.296875 -14.15625 L 4.859375 -14.15625 L 4.859375 -6.3125 C 4.859375 -4.9375 5.1875 -3.894531 5.84375 -3.1875 C 6.507812 -2.488281 7.457031 -2.140625 8.6875 -2.140625 C 10.039062 -2.140625 11.109375 -2.546875 11.890625 -3.359375 C 12.671875 -4.179688 13.0625 -5.34375 13.0625 -6.84375 L 13.0625 -14.15625 Z M 15.625 -14.15625 "/></g></g><g style="fill:rgb(0%,0%,0%);fill-opacity:1;"><g transform="translate(290.220339, 468.111682)"><path style="stroke:none;" d="M 10.390625 -0.828125 C 10.015625 -0.503906 9.550781 -0.257812 9 -0.09375 C 8.445312 0.0703125 7.878906 0.15625 7.296875 0.15625 C 5.867188 0.15625 4.765625 -0.222656 3.984375 -0.984375 C 3.203125 -1.753906 2.8125 -2.851562 2.8125 -4.28125 L 2.8125 -12.046875 L 0.40625 -12.046875 L 0.40625 -14.15625 L 2.8125 -14.15625 L 2.8125 -17.265625 L 5.375 -17.265625 L 5.375 -14.15625 L 9.4375 -14.15625 L 9.4375 -12.046875 L 5.375 -12.046875 L 5.375 -4.375 C 5.375 -3.613281 5.5625 -3.023438 5.9375 -2.609375 C 6.320312 -2.203125 6.875 -2 7.59375 -2 C 8.375 -2 9.039062 -2.222656 9.59375 -2.671875 Z M 10.390625 -0.828125 "/></g></g><g style="fill:rgb(0%,0%,0%);fill-opacity:1;"><g transform="translate(306.116413, 468.111682)"><path style="stroke:none;" d=""/></g></g><g style="fill:rgb(0%,0%,0%);fill-opacity:1;"><g transform="translate(318.139244, 468.111682)"><path style="stroke:none;" d="M 15.625 -14.15625 L 15.625 0 L 13.203125 0 L 13.203125 -2.140625 C 12.679688 -1.410156 12 -0.84375 11.15625 -0.4375 C 10.3125 -0.0390625 9.390625 0.15625 8.390625 0.15625 C 6.503906 0.15625 5.015625 -0.363281 3.921875 -1.40625 C 2.835938 -2.445312 2.296875 -3.984375 2.296875 -6.015625 L 2.296875 -14.15625 L 4.859375 -14.15625 L 4.859375 -6.3125 C 4.859375 -4.9375 5.1875 -3.894531 5.84375 -3.1875 C 6.507812 -2.488281 7.457031 -2.140625 8.6875 -2.140625 C 10.039062 -2.140625 11.109375 -2.546875 11.890625 -3.359375 C 12.671875 -4.179688 13.0625 -5.34375 13.0625 -6.84375 L 13.0625 -14.15625 Z M 15.625 -14.15625 "/></g></g><g style="fill:rgb(0%,0%,0%);fill-opacity:1;"><g transform="translate(341.060603, 468.111682)"><path style="stroke:none;" d="M 6.5 0.15625 C 5.332031 0.15625 4.210938 0 3.140625 -0.3125 C 2.078125 -0.625 1.242188 -1.019531 0.640625 -1.5 L 1.703125 -3.53125 C 2.328125 -3.082031 3.082031 -2.722656 3.96875 -2.453125 C 4.863281 -2.191406 5.769531 -2.0625 6.6875 -2.0625 C 8.925781 -2.0625 10.046875 -2.703125 10.046875 -3.984375 C 10.046875 -4.410156 9.894531 -4.75 9.59375 -5 C 9.289062 -5.25 8.910156 -5.429688 8.453125 -5.546875 C 8.003906 -5.660156 7.359375 -5.789062 6.515625 -5.9375 C 5.378906 -6.113281 4.445312 -6.316406 3.71875 -6.546875 C 3 -6.773438 2.378906 -7.164062 1.859375 -7.71875 C 1.347656 -8.269531 1.09375 -9.046875 1.09375 -10.046875 C 1.09375 -11.328125 1.625 -12.351562 2.6875 -13.125 C 3.757812 -13.90625 5.195312 -14.296875 7 -14.296875 C 7.945312 -14.296875 8.890625 -14.175781 9.828125 -13.9375 C 10.773438 -13.707031 11.550781 -13.398438 12.15625 -13.015625 L 11.0625 -10.984375 C 9.90625 -11.734375 8.539062 -12.109375 6.96875 -12.109375 C 5.882812 -12.109375 5.054688 -11.925781 4.484375 -11.5625 C 3.921875 -11.207031 3.640625 -10.738281 3.640625 -10.15625 C 3.640625 -9.6875 3.796875 -9.316406 4.109375 -9.046875 C 4.429688 -8.785156 4.828125 -8.59375 5.296875 -8.46875 C 5.773438 -8.34375 6.441406 -8.203125 7.296875 -8.046875 C 8.429688 -7.847656 9.347656 -7.632812 10.046875 -7.40625 C 10.753906 -7.1875 11.359375 -6.8125 11.859375 -6.28125 C 12.359375 -5.75 12.609375 -5 12.609375 -4.03125 C 12.609375 -2.75 12.0625 -1.726562 10.96875 -0.96875 C 9.875 -0.21875 8.382812 0.15625 6.5 0.15625 Z M 6.5 0.15625 "/></g></g><g style="fill:rgb(0%,0%,0%);fill-opacity:1;"><g transform="translate(359.279568, 468.111682)"><path style="stroke:none;" d=""/></g></g></g></svg>