<?xml version="1.0" encoding="UTF-8"?><svg xmlns="http://www.w3.org/2000/svg" xmlns:xlink="http://www.w3.org/1999/xlink" contentScriptType="text/ecmascript" width="810pt" zoomAndPan="magnify" contentStyleType="text/css" viewBox="0 0 810 809.999993" height="809.999993pt" preserveAspectRatio="xMidYMid meet" version="1.2"><defs><clipPath xml:id="clip1" id="clip1"><path d="M 156 175.265625 L 680.027344 175.265625 L 680.027344 635.015625 L 156 635.015625 Z M 156 175.265625 "/></clipPath><clipPath xml:id="clip2" id="clip2"><path d="M 130.277344 430 L 201 430 L 201 438 L 130.277344 438 Z M 130.277344 430 "/></clipPath></defs><g xml:id="surface1" id="surface1"><g clip-rule="nonzero" clip-path="url(#clip1)"><path style=" stroke:none;fill-rule:nonzero;fill:rgb(78.039551%,92.939758%,90.19928%);fill-opacity:1;" d="M 655.851562 448.152344 C 663.101562 434.382812 667.253906 418.730469 667.253906 402.085938 C 667.253906 359.78125 640.683594 323.769531 603.359375 309.582031 C 603.359375 309.535156 603.367188 309.492188 603.367188 309.441406 C 603.367188 235.335938 543.296875 175.265625 469.199219 175.265625 C 406.691406 175.265625 354.320312 218.078125 339.421875 275.941406 C 329.992188 272.839844 319.941406 271.105469 309.476562 271.105469 C 260.335938 271.105469 219.886719 308.117188 214.347656 355.773438 C 181.101562 362.808594 156.144531 392.304688 156.144531 427.640625 C 156.144531 468.222656 189.042969 501.121094 229.617188 501.121094 C 230.75 501.121094 231.867188 501.042969 232.976562 500.980469 C 232.953125 502.097656 232.8125 503.191406 232.8125 504.3125 C 232.8125 576.652344 291.449219 635.296875 363.785156 635.296875 C 404.910156 635.296875 441.566406 616.304688 465.582031 586.648438 C 479.5 600.863281 498.84375 609.738281 520.3125 609.738281 C 550.019531 609.738281 575.726562 592.804688 588.453125 568.09375 C 595.175781 570.234375 602.324219 571.402344 609.753906 571.402344 C 648.566406 571.402344 680.03125 539.933594 680.03125 501.121094 C 680.03125 479.964844 670.640625 461.039062 655.851562 448.152344 Z M 655.851562 448.152344 "/></g><path style=" stroke:none;fill-rule:nonzero;fill:rgb(99.21875%,98.81897%,93.728638%);fill-opacity:1;" d="M 507.53125 334.996094 L 470.796875 334.996094 C 454.921875 339.789062 442.046875 326.914062 442.046875 311.035156 C 442.046875 296.128906 453.433594 284.015625 467.953125 282.574219 C 467.8125 281.414062 467.601562 280.285156 467.601562 279.089844 C 467.601562 263.210938 480.476562 250.339844 496.351562 250.339844 C 505.539062 250.339844 513.621094 254.722656 518.886719 261.429688 C 519.78125 244.589844 533.59375 231.171875 550.65625 231.171875 C 568.296875 231.171875 582.601562 245.476562 582.601562 263.117188 C 582.601562 265.964844 582.109375 268.675781 581.40625 271.308594 C 585.507812 266.34375 591.628906 263.117188 598.574219 263.117188 C 609.953125 263.117188 619.234375 271.648438 620.648438 282.636719 C 621.804688 282.496094 622.933594 282.285156 624.128906 282.285156 C 640.007812 282.285156 652.878906 295.160156 652.878906 311.035156 C 652.878906 326.914062 640.007812 339.789062 624.128906 334.996094 L 526.699219 334.996094 L 526.699219 341.386719 L 507.53125 341.386719 Z M 507.53125 334.996094 "/><path style=" stroke:none;fill-rule:nonzero;fill:rgb(27.839661%,16.859436%,16.079712%);fill-opacity:1;" d="M 549.0625 226.378906 C 568.4375 226.378906 584.199219 242.140625 584.199219 261.519531 C 584.199219 261.621094 584.199219 261.71875 584.199219 261.820312 C 588.046875 259.550781 592.441406 258.324219 596.976562 258.324219 C 608.675781 258.324219 618.769531 266.382812 621.625 277.523438 C 621.925781 277.503906 622.226562 277.492188 622.53125 277.492188 C 642.332031 277.492188 657.984375 295.601562 653.792969 316.128906 C 650.726562 331.152344 636.613281 341.386719 621.28125 341.386719 L 527.5 341.386719 C 525.734375 341.386719 524.304688 339.953125 524.304688 338.191406 C 524.304688 336.429688 525.734375 334.996094 527.5 334.996094 L 621.53125 334.996094 C 633.796875 334.996094 645.085938 326.804688 647.539062 314.789062 C 650.894531 298.367188 638.371094 283.882812 622.53125 283.882812 C 621.785156 283.882812 621.0625 283.992188 620.339844 284.085938 L 619.441406 284.207031 C 619.304688 284.226562 619.179688 284.234375 619.042969 284.234375 C 617.472656 284.234375 616.09375 283.050781 615.882812 281.441406 C 614.660156 271.902344 606.535156 264.714844 596.976562 264.714844 C 591.324219 264.714844 585.96875 267.277344 582.277344 271.742188 C 581.648438 272.496094 580.738281 272.90625 579.808594 272.90625 C 579.3125 272.90625 578.8125 272.789062 578.355469 272.546875 C 577.019531 271.863281 576.347656 270.335938 576.730469 268.886719 C 577.753906 265.054688 578.019531 262.054688 577.671875 258.988281 C 576.136719 245.398438 565.152344 234.011719 551.527344 232.871094 C 535.230469 231.496094 521.339844 243.910156 520.484375 260 C 520.414062 261.328125 519.523438 262.472656 518.253906 262.875 C 517.933594 262.976562 517.609375 263.027344 517.28125 263.027344 C 516.324219 263.027344 515.390625 262.585938 514.777344 261.800781 C 509.847656 255.53125 502.554688 251.9375 494.753906 251.9375 C 480.660156 251.9375 469.199219 263.398438 469.199219 277.492188 C 469.199219 278.242188 469.308594 278.960938 469.40625 279.683594 L 469.527344 280.585938 C 469.628906 281.441406 469.386719 282.296875 468.847656 282.96875 C 468.3125 283.640625 467.527344 284.066406 466.675781 284.152344 C 451.648438 285.644531 440.851562 299.671875 444.289062 315.234375 C 446.894531 327.074219 458.179688 334.996094 470.304688 334.996094 L 508.332031 334.996094 C 510.09375 334.996094 511.527344 336.429688 511.527344 338.191406 C 511.527344 339.953125 510.09375 341.386719 508.332031 341.386719 L 470.394531 341.386719 C 454.632812 341.386719 440.316406 330.5 437.714844 314.945312 C 434.765625 297.292969 446.300781 281.59375 462.832031 278.273438 C 462.816406 278.015625 462.8125 277.753906 462.8125 277.492188 C 462.8125 259.878906 477.140625 245.546875 494.753906 245.546875 C 502.269531 245.546875 509.40625 248.203125 515.089844 252.984375 C 518.910156 237.625 532.738281 226.378906 549.0625 226.378906 Z M 549.0625 226.378906 "/><path style=" stroke:none;fill-rule:nonzero;fill:rgb(27.839661%,16.859436%,16.079712%);fill-opacity:1;" d="M 560.242188 272.699219 C 569.203125 272.699219 576.910156 279.082031 578.851562 287.660156 C 581.195312 286.238281 583.875 285.480469 586.59375 285.480469 C 594.273438 285.480469 600.636719 291.210938 601.628906 298.691406 C 602.925781 298.40625 604.160156 298.257812 605.367188 298.257812 C 615.132812 298.257812 623.324219 305.925781 624.007812 315.714844 C 624.066406 316.59375 623.40625 317.355469 622.527344 317.417969 C 622.488281 317.417969 622.449219 317.417969 622.410156 317.417969 C 621.582031 317.417969 620.878906 316.773438 620.820312 315.9375 C 620.25 307.816406 613.464844 301.445312 605.367188 301.445312 C 603.902344 301.445312 602.363281 301.714844 600.652344 302.257812 C 600.511719 302.300781 600.363281 302.320312 600.222656 302.320312 C 599.871094 302.320312 599.519531 302.195312 599.226562 301.976562 C 598.816406 301.675781 598.574219 301.152344 598.574219 300.640625 C 598.574219 294.035156 593.203125 288.660156 586.59375 288.660156 C 583.738281 288.660156 580.941406 289.734375 578.730469 291.683594 C 578.429688 291.945312 578.054688 292.085938 577.675781 292.085938 C 577.472656 292.085938 577.273438 292.046875 577.082031 291.964844 C 576.519531 291.742188 576.136719 291.21875 576.09375 290.609375 C 575.441406 282.355469 568.484375 275.882812 560.253906 275.882812 C 558.925781 275.882812 557.539062 276.101562 555.898438 276.566406 C 555.75 276.609375 555.597656 276.628906 555.449219 276.628906 C 554.753906 276.628906 554.128906 276.164062 553.921875 275.46875 C 553.679688 274.617188 554.171875 273.734375 555.023438 273.492188 C 556.9375 272.957031 558.605469 272.699219 560.242188 272.699219 Z M 560.242188 272.699219 "/><path style=" stroke:none;fill-rule:nonzero;fill:rgb(27.839661%,16.859436%,16.079712%);fill-opacity:1;" d="M 471.542969 282.285156 C 480.015625 282.285156 487.566406 288.015625 489.90625 296.226562 C 490.148438 297.078125 489.65625 297.957031 488.808594 298.199219 C 488.660156 298.246094 488.511719 298.265625 488.371094 298.265625 C 487.675781 298.265625 487.039062 297.804688 486.839844 297.101562 C 484.890625 290.257812 478.605469 285.484375 471.550781 285.484375 C 470.804688 285.484375 470.082031 285.574219 469.367188 285.671875 C 469.289062 285.683594 469.21875 285.691406 469.140625 285.691406 C 468.371094 285.691406 467.679688 285.101562 467.570312 284.304688 C 467.449219 283.429688 468.0625 282.625 468.9375 282.507812 C 469.789062 282.386719 470.65625 282.285156 471.542969 282.285156 Z M 471.542969 282.285156 "/><g clip-rule="nonzero" clip-path="url(#clip2)"><path style=" stroke:none;fill-rule:nonzero;fill:rgb(100%,100%,100%);fill-opacity:1;" d="M 197.066406 437.226562 L 133.785156 437.226562 C 132.019531 437.226562 130.589844 435.792969 130.589844 434.03125 C 130.589844 432.269531 132.019531 430.835938 133.785156 430.835938 L 197.066406 430.835938 C 198.828125 430.835938 200.261719 432.269531 200.261719 434.03125 C 200.261719 435.792969 198.835938 437.226562 197.066406 437.226562 Z M 197.066406 437.226562 "/></g><path style=" stroke:none;fill-rule:nonzero;fill:rgb(100%,100%,100%);fill-opacity:1;" d="M 216.839844 437.226562 L 210.449219 437.226562 C 208.6875 437.226562 207.257812 435.792969 207.257812 434.03125 C 207.257812 432.269531 208.6875 430.835938 210.449219 430.835938 L 216.839844 430.835938 C 218.601562 430.835938 220.035156 432.269531 220.035156 434.03125 C 220.035156 435.792969 218.609375 437.226562 216.839844 437.226562 Z M 216.839844 437.226562 "/><path style=" stroke:none;fill-rule:nonzero;fill:rgb(100%,100%,100%);fill-opacity:1;" d="M 248.726562 450.003906 L 191.285156 450.003906 C 189.519531 450.003906 188.089844 448.574219 188.089844 446.808594 C 188.089844 445.046875 189.519531 443.617188 191.285156 443.617188 L 248.726562 443.617188 C 250.488281 443.617188 251.921875 445.046875 251.921875 446.808594 C 251.921875 448.574219 250.488281 450.003906 248.726562 450.003906 Z M 248.726562 450.003906 "/><path style=" stroke:none;fill-rule:nonzero;fill:rgb(100%,100%,100%);fill-opacity:1;" d="M 178.507812 450.003906 L 172.117188 450.003906 C 170.355469 450.003906 168.921875 448.574219 168.921875 446.808594 C 168.921875 445.046875 170.355469 443.617188 172.117188 443.617188 L 178.507812 443.617188 C 180.269531 443.617188 181.699219 445.046875 181.699219 446.808594 C 181.699219 448.574219 180.277344 450.003906 178.507812 450.003906 Z M 178.507812 450.003906 "/><path style=" stroke:none;fill-rule:nonzero;fill:rgb(100%,100%,100%);fill-opacity:1;" d="M 159.339844 450.003906 L 146.5625 450.003906 C 144.800781 450.003906 143.367188 448.574219 143.367188 446.808594 C 143.367188 445.046875 144.800781 443.617188 146.5625 443.617188 L 159.339844 443.617188 C 161.101562 443.617188 162.535156 445.046875 162.535156 446.808594 C 162.535156 448.574219 161.109375 450.003906 159.339844 450.003906 Z M 159.339844 450.003906 "/><path style=" stroke:none;fill-rule:nonzero;fill:rgb(100%,100%,100%);fill-opacity:1;" d="M 197.671875 462.785156 L 184.894531 462.785156 C 183.132812 462.785156 181.699219 461.351562 181.699219 459.589844 C 181.699219 457.824219 183.132812 456.394531 184.894531 456.394531 L 197.671875 456.394531 C 199.4375 456.394531 200.867188 457.824219 200.867188 459.589844 C 200.867188 461.351562 199.4375 462.785156 197.671875 462.785156 Z M 197.671875 462.785156 "/><path style=" stroke:none;fill-rule:nonzero;fill:rgb(100%,100%,100%);fill-opacity:1;" d="M 216.839844 405.28125 C 215.710938 405.28125 211.582031 405.28125 210.449219 405.28125 C 208.6875 405.28125 207.257812 406.710938 207.257812 408.472656 C 207.257812 410.238281 208.6875 411.667969 210.449219 411.667969 C 211.582031 411.667969 215.710938 411.667969 216.839844 411.667969 C 218.601562 411.667969 220.035156 410.238281 220.035156 408.472656 C 220.035156 406.710938 218.601562 405.28125 216.839844 405.28125 Z M 216.839844 405.28125 "/><path style=" stroke:none;fill-rule:nonzero;fill:rgb(100%,100%,100%);fill-opacity:1;" d="M 216.839844 418.058594 C 215.710938 418.058594 186.027344 418.058594 184.894531 418.058594 C 183.132812 418.058594 181.699219 419.488281 181.699219 421.253906 C 181.699219 423.015625 183.132812 424.449219 184.894531 424.449219 C 186.027344 424.449219 215.710938 424.449219 216.839844 424.449219 C 218.601562 424.449219 220.035156 423.015625 220.035156 421.253906 C 220.035156 419.488281 218.601562 418.058594 216.839844 418.058594 Z M 216.839844 418.058594 "/><path style=" stroke:none;fill-rule:nonzero;fill:rgb(100%,100%,100%);fill-opacity:1;" d="M 248.785156 430.835938 C 247.652344 430.835938 230.75 430.835938 229.617188 430.835938 C 227.855469 430.835938 226.421875 432.269531 226.421875 434.03125 C 226.421875 435.792969 227.855469 437.226562 229.617188 437.226562 C 230.75 437.226562 247.652344 437.226562 248.785156 437.226562 C 250.546875 437.226562 251.980469 435.792969 251.980469 434.03125 C 251.980469 432.269531 250.546875 430.835938 248.785156 430.835938 Z M 248.785156 430.835938 "/><path style=" stroke:none;fill-rule:nonzero;fill:rgb(100%,100%,100%);fill-opacity:1;" d="M 386.144531 226.378906 L 322.257812 226.378906 C 320.492188 226.378906 319.0625 224.945312 319.0625 223.183594 C 319.0625 221.421875 320.492188 219.988281 322.257812 219.988281 L 386.144531 219.988281 C 387.90625 219.988281 389.339844 221.421875 389.339844 223.183594 C 389.339844 224.945312 387.90625 226.378906 386.144531 226.378906 Z M 386.144531 226.378906 "/><path style=" stroke:none;fill-rule:nonzero;fill:rgb(100%,100%,100%);fill-opacity:1;" d="M 411.699219 226.378906 L 398.921875 226.378906 C 397.160156 226.378906 395.726562 224.945312 395.726562 223.183594 C 395.726562 221.421875 397.160156 219.988281 398.921875 219.988281 L 411.699219 219.988281 C 413.464844 219.988281 414.894531 221.421875 414.894531 223.183594 C 414.894531 224.945312 413.464844 226.378906 411.699219 226.378906 Z M 411.699219 226.378906 "/><path style=" stroke:none;fill-rule:nonzero;fill:rgb(100%,100%,100%);fill-opacity:1;" d="M 443.644531 239.15625 L 379.753906 239.15625 C 377.992188 239.15625 376.5625 237.726562 376.5625 235.960938 C 376.5625 234.199219 377.992188 232.769531 379.753906 232.769531 L 443.644531 232.769531 C 445.40625 232.769531 446.839844 234.199219 446.839844 235.960938 C 446.839844 237.726562 445.414062 239.15625 443.644531 239.15625 Z M 443.644531 239.15625 "/><path style=" stroke:none;fill-rule:nonzero;fill:rgb(100%,100%,100%);fill-opacity:1;" d="M 366.976562 239.15625 L 360.589844 239.15625 C 358.824219 239.15625 357.394531 237.726562 357.394531 235.960938 C 357.394531 234.199219 358.824219 232.769531 360.589844 232.769531 L 366.976562 232.769531 C 368.742188 232.769531 370.171875 234.199219 370.171875 235.960938 C 370.171875 237.726562 368.742188 239.15625 366.976562 239.15625 Z M 366.976562 239.15625 "/><path style=" stroke:none;fill-rule:nonzero;fill:rgb(100%,100%,100%);fill-opacity:1;" d="M 347.011719 239.15625 L 335.035156 239.15625 C 333.269531 239.15625 331.839844 237.726562 331.839844 235.960938 C 331.839844 234.199219 333.269531 232.769531 335.035156 232.769531 L 347.011719 232.769531 C 348.777344 232.769531 350.207031 234.199219 350.207031 235.960938 C 350.207031 237.726562 348.777344 239.15625 347.011719 239.15625 Z M 347.011719 239.15625 "/><path style=" stroke:none;fill-rule:nonzero;fill:rgb(100%,100%,100%);fill-opacity:1;" d="M 405.3125 213.601562 L 373.367188 213.601562 C 371.605469 213.601562 370.171875 212.167969 370.171875 210.40625 C 370.171875 208.640625 371.605469 207.210938 373.367188 207.210938 L 405.3125 207.210938 C 407.074219 207.210938 408.503906 208.640625 408.503906 210.40625 C 408.503906 212.167969 407.082031 213.601562 405.3125 213.601562 Z M 405.3125 213.601562 "/><path style=" stroke:none;fill-rule:nonzero;fill:rgb(100%,100%,100%);fill-opacity:1;" d="M 386.144531 251.9375 L 373.367188 251.9375 C 371.605469 251.9375 370.171875 250.503906 370.171875 248.742188 C 370.171875 246.976562 371.605469 245.546875 373.367188 245.546875 L 386.144531 245.546875 C 387.90625 245.546875 389.339844 246.976562 389.339844 248.742188 C 389.339844 250.503906 387.90625 251.9375 386.144531 251.9375 Z M 386.144531 251.9375 "/><path style=" stroke:none;fill-rule:nonzero;fill:rgb(94.509888%,73.728943%,9.799194%);fill-opacity:1;" d="M 269.230469 528.59375 L 269.230469 333.082031 L 384.226562 333.082031 L 384.226562 281.964844 L 503.0625 281.964844 L 503.0625 365.027344 L 618.058594 365.027344 L 618.058594 528.59375 Z M 269.230469 528.59375 "/><path style=" stroke:none;fill-rule:nonzero;fill:rgb(27.839661%,16.859436%,16.079712%);fill-opacity:1;" d="M 498.589844 286.4375 L 498.589844 369.5 L 613.589844 369.5 L 613.589844 524.121094 L 273.699219 524.121094 L 273.699219 337.550781 L 388.699219 337.550781 L 388.699219 286.4375 L 498.589844 286.4375 M 507.53125 277.492188 L 379.753906 277.492188 L 379.753906 328.609375 L 264.757812 328.609375 L 264.757812 533.066406 L 622.53125 533.066406 L 622.53125 360.554688 L 507.53125 360.554688 Z M 507.53125 277.492188 "/><path style=" stroke:none;fill-rule:nonzero;fill:rgb(96.078491%,90.19928%,56.469727%);fill-opacity:1;" d="M 388.539062 286.546875 L 498.75 286.546875 L 498.75 328.34375 L 388.539062 328.34375 Z M 388.539062 286.546875 "/><path style=" stroke:none;fill-rule:nonzero;fill:rgb(96.078491%,90.19928%,56.469727%);fill-opacity:1;" d="M 501.144531 369.339844 L 613.21875 369.339844 L 613.21875 411.136719 L 501.144531 411.136719 Z M 501.144531 369.339844 "/><path style=" stroke:none;fill-rule:nonzero;fill:rgb(27.839661%,16.859436%,16.079712%);fill-opacity:1;" d="M 418.089844 328.609375 L 389.339844 328.609375 C 387.574219 328.609375 386.144531 327.175781 386.144531 325.414062 C 386.144531 323.648438 387.574219 322.21875 389.339844 322.21875 L 418.089844 322.21875 C 419.851562 322.21875 421.285156 323.648438 421.285156 325.414062 C 421.285156 327.175781 419.851562 328.609375 418.089844 328.609375 Z M 418.089844 328.609375 "/><path style=" stroke:none;fill-rule:nonzero;fill:rgb(27.839661%,16.859436%,16.079712%);fill-opacity:1;" d="M 501.144531 328.609375 L 430.867188 328.609375 C 429.101562 328.609375 427.671875 327.175781 427.671875 325.414062 C 427.671875 323.648438 429.101562 322.21875 430.867188 322.21875 L 501.144531 322.21875 C 502.90625 322.21875 504.339844 323.648438 504.339844 325.414062 C 504.339844 327.175781 502.90625 328.609375 501.144531 328.609375 Z M 501.144531 328.609375 "/><path style=" stroke:none;fill-rule:nonzero;fill:rgb(96.078491%,90.19928%,56.469727%);fill-opacity:1;" d="M 273.542969 337.660156 L 386.144531 337.660156 L 386.144531 379.324219 L 273.542969 379.324219 Z M 273.542969 337.660156 "/><path style=" stroke:none;fill-rule:nonzero;fill:rgb(27.839661%,16.859436%,16.079712%);fill-opacity:1;" d="M 366.976562 379.722656 L 347.8125 379.722656 C 346.046875 379.722656 344.617188 378.289062 344.617188 376.527344 C 344.617188 374.765625 346.046875 373.332031 347.8125 373.332031 L 366.976562 373.332031 C 368.742188 373.332031 370.171875 374.765625 370.171875 376.527344 C 370.171875 378.289062 368.742188 379.722656 366.976562 379.722656 Z M 366.976562 379.722656 "/><path style=" stroke:none;fill-rule:nonzero;fill:rgb(27.839661%,16.859436%,16.079712%);fill-opacity:1;" d="M 456.421875 360.554688 L 437.253906 360.554688 C 435.492188 360.554688 434.0625 359.121094 434.0625 357.359375 C 434.0625 355.597656 435.492188 354.164062 437.253906 354.164062 L 456.421875 354.164062 C 458.183594 354.164062 459.617188 355.597656 459.617188 357.359375 C 459.617188 359.121094 458.183594 360.554688 456.421875 360.554688 Z M 456.421875 360.554688 "/><path style=" stroke:none;fill-rule:nonzero;fill:rgb(27.839661%,16.859436%,16.079712%);fill-opacity:1;" d="M 456.421875 398.890625 L 437.253906 398.890625 C 435.492188 398.890625 434.0625 397.457031 434.0625 395.695312 C 434.0625 393.933594 435.492188 392.5 437.253906 392.5 L 456.421875 392.5 C 458.183594 392.5 459.617188 393.933594 459.617188 395.695312 C 459.617188 397.457031 458.183594 398.890625 456.421875 398.890625 Z M 456.421875 398.890625 "/><path style=" stroke:none;fill-rule:nonzero;fill:rgb(27.839661%,16.859436%,16.079712%);fill-opacity:1;" d="M 446.839844 395.695312 C 445.074219 395.695312 443.644531 394.265625 443.644531 392.5 L 443.644531 357.359375 C 443.644531 355.597656 445.074219 354.164062 446.839844 354.164062 C 448.601562 354.164062 450.035156 355.597656 450.035156 357.359375 L 450.035156 392.5 C 450.035156 394.265625 448.601562 395.695312 446.839844 395.695312 Z M 446.839844 395.695312 "/><path style=" stroke:none;fill-rule:nonzero;fill:rgb(27.839661%,16.859436%,16.079712%);fill-opacity:1;" d="M 347.8125 411.667969 L 315.867188 411.667969 C 314.105469 411.667969 312.671875 410.238281 312.671875 408.472656 C 312.671875 406.710938 314.105469 405.28125 315.867188 405.28125 L 347.8125 405.28125 C 349.574219 405.28125 351.007812 406.710938 351.007812 408.472656 C 351.007812 410.238281 349.574219 411.667969 347.8125 411.667969 Z M 347.8125 411.667969 "/><path style=" stroke:none;fill-rule:nonzero;fill:rgb(27.839661%,16.859436%,16.079712%);fill-opacity:1;" d="M 347.8125 450.003906 L 315.867188 450.003906 C 314.105469 450.003906 312.671875 448.574219 312.671875 446.808594 C 312.671875 445.046875 314.105469 443.617188 315.867188 443.617188 L 347.8125 443.617188 C 349.574219 443.617188 351.007812 445.046875 351.007812 446.808594 C 351.007812 448.574219 349.574219 450.003906 347.8125 450.003906 Z M 347.8125 450.003906 "/><path style=" stroke:none;fill-rule:nonzero;fill:rgb(27.839661%,16.859436%,16.079712%);fill-opacity:1;" d="M 325.449219 446.808594 C 323.6875 446.808594 322.257812 445.378906 322.257812 443.617188 L 322.257812 408.472656 C 322.257812 406.710938 323.6875 405.28125 325.449219 405.28125 C 327.214844 405.28125 328.644531 406.710938 328.644531 408.472656 L 328.644531 443.617188 C 328.644531 445.378906 327.214844 446.808594 325.449219 446.808594 Z M 325.449219 446.808594 "/><path style=" stroke:none;fill-rule:nonzero;fill:rgb(27.839661%,16.859436%,16.079712%);fill-opacity:1;" d="M 338.226562 446.808594 C 336.464844 446.808594 335.035156 445.378906 335.035156 443.617188 L 335.035156 408.472656 C 335.035156 406.710938 336.464844 405.28125 338.226562 405.28125 C 339.992188 405.28125 341.421875 406.710938 341.421875 408.472656 L 341.421875 443.617188 C 341.421875 445.378906 339.992188 446.808594 338.226562 446.808594 Z M 338.226562 446.808594 "/><path style=" stroke:none;fill-rule:nonzero;fill:rgb(27.839661%,16.859436%,16.079712%);fill-opacity:1;" d="M 577.8125 443.617188 L 533.089844 443.617188 C 531.324219 443.617188 529.894531 442.183594 529.894531 440.421875 C 529.894531 438.65625 531.324219 437.226562 533.089844 437.226562 L 577.8125 437.226562 C 579.574219 437.226562 581.003906 438.65625 581.003906 440.421875 C 581.003906 442.183594 579.574219 443.617188 577.8125 443.617188 Z M 577.8125 443.617188 "/><path style=" stroke:none;fill-rule:nonzero;fill:rgb(27.839661%,16.859436%,16.079712%);fill-opacity:1;" d="M 577.8125 481.953125 L 533.089844 481.953125 C 531.324219 481.953125 529.894531 480.519531 529.894531 478.757812 C 529.894531 476.992188 531.324219 475.5625 533.089844 475.5625 L 577.8125 475.5625 C 579.574219 475.5625 581.003906 476.992188 581.003906 478.757812 C 581.003906 480.519531 579.574219 481.953125 577.8125 481.953125 Z M 577.8125 481.953125 "/><path style=" stroke:none;fill-rule:nonzero;fill:rgb(27.839661%,16.859436%,16.079712%);fill-opacity:1;" d="M 542.671875 478.757812 C 540.910156 478.757812 539.476562 477.324219 539.476562 475.5625 L 539.476562 440.421875 C 539.476562 438.65625 540.910156 437.226562 542.671875 437.226562 C 544.433594 437.226562 545.867188 438.65625 545.867188 440.421875 L 545.867188 475.5625 C 545.867188 477.324219 544.433594 478.757812 542.671875 478.757812 Z M 542.671875 478.757812 "/><path style=" stroke:none;fill-rule:nonzero;fill:rgb(27.839661%,16.859436%,16.079712%);fill-opacity:1;" d="M 555.449219 478.757812 C 553.6875 478.757812 552.253906 477.324219 552.253906 475.5625 L 552.253906 440.421875 C 552.253906 438.65625 553.6875 437.226562 555.449219 437.226562 C 557.214844 437.226562 558.644531 438.65625 558.644531 440.421875 L 558.644531 475.5625 C 558.644531 477.324219 557.214844 478.757812 555.449219 478.757812 Z M 555.449219 478.757812 "/><path style=" stroke:none;fill-rule:nonzero;fill:rgb(27.839661%,16.859436%,16.079712%);fill-opacity:1;" d="M 568.226562 478.757812 C 566.464844 478.757812 565.03125 477.324219 565.03125 475.5625 L 565.03125 440.421875 C 565.03125 438.65625 566.464844 437.226562 568.226562 437.226562 C 569.992188 437.226562 571.421875 438.65625 571.421875 440.421875 L 571.421875 475.5625 C 571.421875 477.324219 569.992188 478.757812 568.226562 478.757812 Z M 568.226562 478.757812 "/><path style=" stroke:none;fill-rule:nonzero;fill:rgb(27.839661%,16.859436%,16.079712%);fill-opacity:1;" d="M 331.839844 379.722656 L 271.144531 379.722656 C 269.382812 379.722656 267.949219 378.289062 267.949219 376.527344 C 267.949219 374.765625 269.382812 373.332031 271.144531 373.332031 L 331.839844 373.332031 C 333.601562 373.332031 335.035156 374.765625 335.035156 376.527344 C 335.035156 378.289062 333.601562 379.722656 331.839844 379.722656 Z M 331.839844 379.722656 "/><path style=" stroke:none;fill-rule:nonzero;fill:rgb(27.839661%,16.859436%,16.079712%);fill-opacity:1;" d="M 533.089844 411.667969 L 517.117188 411.667969 C 515.351562 411.667969 513.921875 410.238281 513.921875 408.472656 C 513.921875 406.710938 515.351562 405.28125 517.117188 405.28125 L 533.089844 405.28125 C 534.851562 405.28125 536.28125 406.710938 536.28125 408.472656 C 536.28125 410.238281 534.851562 411.667969 533.089844 411.667969 Z M 533.089844 411.667969 "/><path style=" stroke:none;fill-rule:nonzero;fill:rgb(27.839661%,16.859436%,16.079712%);fill-opacity:1;" d="M 616.144531 411.667969 L 545.867188 411.667969 C 544.101562 411.667969 542.671875 410.238281 542.671875 408.472656 C 542.671875 406.710938 544.101562 405.28125 545.867188 405.28125 L 616.144531 405.28125 C 617.90625 405.28125 619.339844 406.710938 619.339844 408.472656 C 619.339844 410.238281 617.90625 411.667969 616.144531 411.667969 Z M 616.144531 411.667969 "/><path style=" stroke:none;fill-rule:nonzero;fill:rgb(43.528748%,56.858826%,23.919678%);fill-opacity:1;" d="M 273.542969 501.121094 L 613.34375 501.121094 L 613.34375 524.28125 L 273.542969 524.28125 Z M 273.542969 501.121094 "/><path style=" stroke:none;fill-rule:nonzero;fill:rgb(27.839661%,16.859436%,16.079712%);fill-opacity:1;" d="M 331.839844 507.507812 L 271.144531 507.507812 C 269.382812 507.507812 267.949219 506.078125 267.949219 504.3125 C 267.949219 502.550781 269.382812 501.121094 271.144531 501.121094 L 331.839844 501.121094 C 333.601562 501.121094 335.035156 502.550781 335.035156 504.3125 C 335.035156 506.078125 333.601562 507.507812 331.839844 507.507812 Z M 331.839844 507.507812 "/><path style=" stroke:none;fill-rule:nonzero;fill:rgb(27.839661%,16.859436%,16.079712%);fill-opacity:1;" d="M 373.367188 507.507812 L 347.8125 507.507812 C 346.046875 507.507812 344.617188 506.078125 344.617188 504.3125 C 344.617188 502.550781 346.046875 501.121094 347.8125 501.121094 L 373.367188 501.121094 C 375.128906 501.121094 376.5625 502.550781 376.5625 504.3125 C 376.5625 506.078125 375.128906 507.507812 373.367188 507.507812 Z M 373.367188 507.507812 "/><path style=" stroke:none;fill-rule:nonzero;fill:rgb(27.839661%,16.859436%,16.079712%);fill-opacity:1;" d="M 616.144531 507.507812 L 472.394531 507.507812 C 470.632812 507.507812 469.199219 506.078125 469.199219 504.3125 C 469.199219 502.550781 470.632812 501.121094 472.394531 501.121094 L 616.144531 501.121094 C 617.90625 501.121094 619.339844 502.550781 619.339844 504.3125 C 619.339844 506.078125 617.90625 507.507812 616.144531 507.507812 Z M 616.144531 507.507812 "/><path style=" stroke:none;fill-rule:nonzero;fill:rgb(27.839661%,16.859436%,16.079712%);fill-opacity:1;" d="M 456.421875 507.507812 L 389.339844 507.507812 C 387.574219 507.507812 386.144531 506.078125 386.144531 504.3125 C 386.144531 502.550781 387.574219 501.121094 389.339844 501.121094 L 456.421875 501.121094 C 458.183594 501.121094 459.617188 502.550781 459.617188 504.3125 C 459.617188 506.078125 458.183594 507.507812 456.421875 507.507812 Z M 456.421875 507.507812 "/><path style=" stroke:none;fill-rule:nonzero;fill:rgb(99.21875%,98.81897%,93.728638%);fill-opacity:1;" d="M 355.796875 549.039062 C 355.796875 549.039062 365.808594 549.039062 378.160156 549.039062 C 390.507812 549.039062 400.519531 539.027344 400.519531 526.675781 C 400.519531 515.296875 391.992188 506.011719 381 504.601562 C 381.179688 503.457031 381.351562 502.3125 381.351562 501.121094 C 381.351562 488.769531 371.339844 478.757812 358.992188 478.757812 C 352.398438 478.757812 346.535156 481.664062 342.445312 486.199219 C 339.992188 474.648438 329.75 465.976562 317.464844 465.976562 C 303.351562 465.976562 291.910156 477.421875 291.910156 491.535156 C 291.910156 492.753906 292.101562 493.925781 292.265625 495.101562 C 289.53125 492.902344 286.101562 491.535156 282.324219 491.535156 C 274.480469 491.535156 267.984375 497.203125 266.640625 504.664062 C 265.496094 504.488281 264.355469 504.3125 263.160156 504.3125 C 250.808594 504.3125 240.796875 514.324219 240.796875 526.675781 C 240.796875 539.027344 250.808594 549.039062 263.160156 549.039062 C 275.507812 549.039062 311.074219 549.039062 311.074219 549.039062 L 311.074219 552.234375 L 355.796875 552.234375 Z M 355.796875 549.039062 "/><path style=" stroke:none;fill-rule:nonzero;fill:rgb(27.839661%,16.859436%,16.079712%);fill-opacity:1;" d="M 366.976562 520.289062 C 366.097656 520.289062 365.382812 519.570312 365.382812 518.691406 C 365.382812 510.875 371.738281 504.519531 379.550781 504.519531 C 379.769531 504.574219 384.261719 504.511719 387.5 505.386719 C 388.347656 505.617188 388.855469 506.492188 388.625 507.34375 C 388.394531 508.199219 387.519531 508.703125 386.667969 508.46875 C 383.832031 507.699219 379.640625 507.699219 379.558594 507.714844 C 373.5 507.714844 368.574219 512.640625 368.574219 518.691406 C 368.574219 519.570312 367.859375 520.289062 366.976562 520.289062 Z M 366.976562 520.289062 "/><path style=" stroke:none;fill-rule:nonzero;fill:rgb(27.839661%,16.859436%,16.079712%);fill-opacity:1;" d="M 327.046875 549.039062 C 327.046875 549.464844 326.964844 549.871094 326.804688 550.261719 C 326.640625 550.652344 326.410156 551 326.113281 551.296875 C 325.8125 551.597656 325.46875 551.828125 325.074219 551.992188 C 324.683594 552.152344 324.277344 552.234375 323.851562 552.234375 C 323.429688 552.234375 323.023438 552.152344 322.632812 551.992188 C 322.238281 551.828125 321.894531 551.597656 321.59375 551.296875 C 321.296875 551 321.0625 550.652344 320.902344 550.261719 C 320.738281 549.871094 320.660156 549.464844 320.660156 549.039062 C 320.660156 548.617188 320.738281 548.207031 320.902344 547.816406 C 321.0625 547.425781 321.296875 547.078125 321.59375 546.78125 C 321.894531 546.480469 322.238281 546.25 322.632812 546.085938 C 323.023438 545.925781 323.429688 545.84375 323.851562 545.84375 C 324.277344 545.84375 324.683594 545.925781 325.074219 546.085938 C 325.46875 546.25 325.8125 546.480469 326.113281 546.78125 C 326.410156 547.078125 326.640625 547.425781 326.804688 547.816406 C 326.964844 548.207031 327.046875 548.617188 327.046875 549.039062 Z M 327.046875 549.039062 "/><path style=" stroke:none;fill-rule:nonzero;fill:rgb(27.839661%,16.859436%,16.079712%);fill-opacity:1;" d="M 378.160156 552.234375 L 355.796875 552.234375 C 354.035156 552.234375 352.601562 550.804688 352.601562 549.039062 C 352.601562 547.277344 354.035156 545.84375 355.796875 545.84375 L 378.160156 545.84375 C 388.726562 545.84375 397.324219 537.246094 397.324219 526.675781 C 397.324219 517.117188 390.136719 508.992188 380.597656 507.769531 C 379.742188 507.65625 378.96875 507.207031 378.453125 506.519531 C 377.933594 505.828125 377.71875 504.960938 377.851562 504.109375 C 378 503.125 378.160156 502.140625 378.160156 501.121094 C 378.160156 490.550781 369.558594 481.953125 358.992188 481.953125 C 353.5625 481.953125 348.527344 484.21875 344.816406 488.339844 C 344.015625 489.230469 342.765625 489.605469 341.621094 489.285156 C 340.457031 488.972656 339.570312 488.039062 339.320312 486.863281 C 337.140625 476.617188 327.949219 469.171875 317.464844 469.171875 C 305.132812 469.171875 295.101562 479.203125 295.101562 491.535156 C 295.101562 492.449219 295.238281 493.324219 295.367188 494.207031 C 295.550781 495.503906 294.960938 497.003906 293.820312 497.65625 C 292.675781 498.308594 291.289062 498.410156 290.265625 497.59375 C 287.933594 495.71875 285.195312 494.730469 282.324219 494.730469 C 276.152344 494.730469 270.875 499.144531 269.785156 505.234375 C 269.476562 506.941406 267.894531 508.082031 266.148438 507.820312 C 265.164062 507.667969 264.179688 507.507812 263.160156 507.507812 C 252.59375 507.507812 243.992188 516.109375 243.992188 526.675781 C 243.992188 537.246094 252.59375 545.84375 263.160156 545.84375 L 311.074219 545.84375 C 312.839844 545.84375 314.269531 547.277344 314.269531 549.039062 C 314.269531 550.804688 312.839844 552.234375 311.074219 552.234375 L 263.160156 552.234375 C 249.066406 552.234375 237.605469 540.773438 237.605469 526.675781 C 237.605469 512.582031 249.066406 501.121094 263.160156 501.121094 C 263.535156 501.121094 263.898438 501.132812 264.269531 501.15625 C 266.914062 493.578125 274.089844 488.339844 282.324219 488.339844 C 284.554688 488.339844 286.726562 488.730469 288.785156 489.492188 C 289.839844 474.585938 302.296875 462.785156 317.464844 462.785156 C 329.164062 462.785156 339.609375 469.984375 343.996094 480.507812 C 348.34375 477.324219 353.59375 475.5625 358.992188 475.5625 C 373.085938 475.5625 384.546875 487.023438 384.546875 501.121094 C 384.546875 501.425781 384.542969 501.726562 384.523438 502.027344 C 395.65625 504.890625 403.714844 514.976562 403.714844 526.675781 C 403.714844 540.773438 392.253906 552.234375 378.160156 552.234375 Z M 378.160156 552.234375 "/><path style=" stroke:none;fill-rule:nonzero;fill:rgb(27.839661%,16.859436%,16.079712%);fill-opacity:1;" d="M 343.019531 545.84375 C 342.003906 545.84375 337.648438 545.84375 336.632812 545.84375 C 334.867188 545.84375 333.4375 547.277344 333.4375 549.039062 C 333.4375 550.804688 334.867188 552.234375 336.632812 552.234375 C 337.648438 552.234375 342.003906 552.234375 343.019531 552.234375 C 344.785156 552.234375 346.214844 550.804688 346.214844 549.039062 C 346.214844 547.277344 344.785156 545.84375 343.019531 545.84375 Z M 343.019531 545.84375 "/></g></svg>